<?plantuml 1.2026.2beta3?><svg xmlns="http://www.w3.org/2000/svg" xmlns:xlink="http://www.w3.org/1999/xlink" contentStyleType="text/css" data-diagram-type="CLASS" height="1251px" preserveAspectRatio="none" style="width:1304px;height:1251px;background:#FFFFFF;" version="1.1" viewBox="0 0 1304 1251" width="1304px" zoomAndPan="magnify"><defs/><g><!--cluster http://data--><g class="cluster" data-qualified-name="http...data" data-source-line="2" id="ent0004"><path d="M8.5,6 L94.3066,6 A3.75,3.75 0 0 1 96.8066,8.5 L103.8066,28.2969 L1294.5,28.2969 A2.5,2.5 0 0 1 1297,30.7969 L1297,1241.7 A2.5,2.5 0 0 1 1294.5,1244.2 L8.5,1244.2 A2.5,2.5 0 0 1 6,1241.7 L6,8.5 A2.5,2.5 0 0 1 8.5,6" fill="none" style="stroke:#000000;stroke-width:1.5;"/><line style="stroke:#000000;stroke-width:1.5;" x1="6" x2="103.8066" y1="28.2969" y2="28.2969"/><text fill="#000000" font-family="sans-serif" font-size="14" font-weight="bold" lengthAdjust="spacing" textLength="84.8066" x="10" y="20.9951">http://data</text></g><!--cluster europa--><g class="cluster" data-qualified-name="http...data.europa" data-source-line="2" id="ent0005"><path d="M32.5,49 L88.9531,49 A3.75,3.75 0 0 1 91.4531,51.5 L98.4531,71.2969 L1270.5,71.2969 A2.5,2.5 0 0 1 1273,73.7969 L1273,1217.7 A2.5,2.5 0 0 1 1270.5,1220.2 L32.5,1220.2 A2.5,2.5 0 0 1 30,1217.7 L30,51.5 A2.5,2.5 0 0 1 32.5,49" fill="none" style="stroke:#000000;stroke-width:1.5;"/><line style="stroke:#000000;stroke-width:1.5;" x1="30" x2="98.4531" y1="71.2969" y2="71.2969"/><text fill="#000000" font-family="sans-serif" font-size="14" font-weight="bold" lengthAdjust="spacing" textLength="55.4531" x="34" y="63.9951">europa</text></g><!--cluster eu/eudi/wrp/--><g class="cluster" data-qualified-name="http...data.europa.eu.eudi.wrp." data-source-line="1" id="ent0002"><path d="M56.5,92 L156.4434,92 A3.75,3.75 0 0 1 158.9434,94.5 L165.9434,114.2969 L1246.5,114.2969 A2.5,2.5 0 0 1 1249,116.7969 L1249,1193.7 A2.5,2.5 0 0 1 1246.5,1196.2 L56.5,1196.2 A2.5,2.5 0 0 1 54,1193.7 L54,94.5 A2.5,2.5 0 0 1 56.5,92" fill="none" style="stroke:#000000;stroke-width:1.5;"/><line style="stroke:#000000;stroke-width:1.5;" x1="54" x2="165.9434" y1="114.2969" y2="114.2969"/><text fill="#000000" font-family="sans-serif" font-size="14" font-weight="bold" lengthAdjust="spacing" textLength="98.9434" x="58" y="106.9951">eu/eudi/wrp/</text></g><!--class WalletRelyingParty--><g class="entity" data-qualified-name="http...data.europa.eu.eudi.wrp..WalletRelyingParty" data-source-line="2" id="ent0003"><rect fill="#F1F1F1" height="227.2656" rx="2.5" ry="2.5" style="stroke:#181818;stroke-width:0.5;" width="358.8418" x="588.58" y="127"/><ellipse cx="697.2406" cy="143" fill="#ADD1B2" rx="11" ry="11" style="stroke:#181818;stroke-width:1;"/><path d="M700.2094,148.6406 Q699.6313,148.9375 698.9906,149.0781 Q698.35,149.2344 697.6469,149.2344 Q695.1469,149.2344 693.8188,147.5938 Q692.5063,145.9375 692.5063,142.8125 Q692.5063,139.6875 693.8188,138.0313 Q695.1469,136.375 697.6469,136.375 Q698.35,136.375 698.9906,136.5313 Q699.6469,136.6875 700.2094,136.9844 L700.2094,139.7031 Q699.5844,139.125 698.9906,138.8594 Q698.3969,138.5781 697.7719,138.5781 Q696.4281,138.5781 695.7406,139.6563 Q695.0531,140.7188 695.0531,142.8125 Q695.0531,144.9063 695.7406,145.9844 Q696.4281,147.0469 697.7719,147.0469 Q698.3969,147.0469 698.9906,146.7813 Q699.5844,146.5 700.2094,145.9219 L700.2094,148.6406 Z " fill="#000000"/><text fill="#000000" font-family="sans-serif" font-size="14" lengthAdjust="spacing" textLength="133.0205" x="717.7406" y="147.8467">WalletRelyingParty</text><line style="stroke:#181818;stroke-width:0.5;" x1="589.58" x2="946.4218" y1="159" y2="159"/><g data-visibility-modifier="PUBLIC_FIELD"><ellipse cx="599.58" cy="172.6484" fill="none" rx="3" ry="3" style="stroke:#038048;stroke-width:1;"/></g><text fill="#000000" font-family="sans-serif" font-size="14" lengthAdjust="spacing" textLength="170.0713" x="608.58" y="175.9951">tradeName: string [0..1]</text><g data-visibility-modifier="PUBLIC_FIELD"><ellipse cx="599.58" cy="188.9453" fill="none" rx="3" ry="3" style="stroke:#038048;stroke-width:1;"/></g><text fill="#000000" font-family="sans-serif" font-size="14" lengthAdjust="spacing" textLength="167.3916" x="608.58" y="192.292">supportURI: string [1..*]</text><g data-visibility-modifier="PUBLIC_FIELD"><ellipse cx="599.58" cy="205.2422" fill="none" rx="3" ry="3" style="stroke:#038048;stroke-width:1;"/></g><text fill="#000000" font-family="sans-serif" font-size="14" lengthAdjust="spacing" textLength="260.5586" x="608.58" y="208.5889">srvDescription: MultiLangString [1..*]</text><g data-visibility-modifier="PUBLIC_FIELD"><ellipse cx="599.58" cy="221.5391" fill="none" rx="3" ry="3" style="stroke:#038048;stroke-width:1;"/></g><text fill="#000000" font-family="sans-serif" font-size="14" lengthAdjust="spacing" textLength="226.1465" x="608.58" y="224.8857">intendedUse: IntendedUse [1..*]</text><g data-visibility-modifier="PUBLIC_FIELD"><ellipse cx="599.58" cy="237.8359" fill="none" rx="3" ry="3" style="stroke:#038048;stroke-width:1;"/></g><text fill="#000000" font-family="sans-serif" font-size="14" lengthAdjust="spacing" textLength="103.2568" x="608.58" y="241.1826">isPSB: boolean</text><g data-visibility-modifier="PUBLIC_FIELD"><ellipse cx="599.58" cy="254.1328" fill="none" rx="3" ry="3" style="stroke:#038048;stroke-width:1;"/></g><text fill="#000000" font-family="sans-serif" font-size="14" lengthAdjust="spacing" textLength="178.3018" x="608.58" y="257.4795">entitlements: string [1..*]</text><g data-visibility-modifier="PUBLIC_FIELD"><ellipse cx="599.58" cy="270.4297" fill="none" rx="3" ry="3" style="stroke:#038048;stroke-width:1;"/></g><text fill="#000000" font-family="sans-serif" font-size="14" lengthAdjust="spacing" textLength="332.8418" x="608.58" y="273.7764">providesAttestations: ProvidedAttestation [0..*]</text><g data-visibility-modifier="PUBLIC_FIELD"><ellipse cx="599.58" cy="286.7266" fill="none" rx="3" ry="3" style="stroke:#038048;stroke-width:1;"/></g><text fill="#000000" font-family="sans-serif" font-size="14" lengthAdjust="spacing" textLength="303.3516" x="608.58" y="290.0732">supervisoryAuthority: SupervisoryAuthority</text><g data-visibility-modifier="PUBLIC_FIELD"><ellipse cx="599.58" cy="303.0234" fill="none" rx="3" ry="3" style="stroke:#038048;stroke-width:1;"/></g><text fill="#000000" font-family="sans-serif" font-size="14" lengthAdjust="spacing" textLength="127.4287" x="608.58" y="306.3701">registryURI: string</text><g data-visibility-modifier="PUBLIC_FIELD"><ellipse cx="599.58" cy="319.3203" fill="none" rx="3" ry="3" style="stroke:#038048;stroke-width:1;"/></g><text fill="#000000" font-family="sans-serif" font-size="14" lengthAdjust="spacing" textLength="304.9512" x="608.58" y="322.667">usesIntermediary: WalletRelyingParty [0..*]</text><g data-visibility-modifier="PUBLIC_FIELD"><ellipse cx="599.58" cy="335.6172" fill="none" rx="3" ry="3" style="stroke:#038048;stroke-width:1;"/></g><text fill="#000000" font-family="sans-serif" font-size="14" lengthAdjust="spacing" textLength="166.8311" x="608.58" y="338.9639">isIntermediary: boolean</text><line style="stroke:#181818;stroke-width:0.5;" x1="589.58" x2="946.4218" y1="346.2656" y2="346.2656"/></g><!--class Provider--><g class="entity" data-qualified-name="http...data.europa.eu.eudi.wrp..Provider" data-source-line="15" id="ent0006"><rect fill="#F1F1F1" height="96.8906" rx="2.5" ry="2.5" style="stroke:#181818;stroke-width:0.5;" width="168.3311" x="201.83" y="455.71"/><ellipse cx="252.6484" cy="471.71" fill="#ADD1B2" rx="11" ry="11" style="stroke:#181818;stroke-width:1;"/><path d="M255.6171,477.3506 Q255.039,477.6475 254.3984,477.7881 Q253.7577,477.9444 253.0546,477.9444 Q250.5546,477.9444 249.2265,476.3038 Q247.914,474.6475 247.914,471.5225 Q247.914,468.3975 249.2265,466.7413 Q250.5546,465.085 253.0546,465.085 Q253.7577,465.085 254.3984,465.2413 Q255.0546,465.3975 255.6171,465.6944 L255.6171,468.4131 Q254.9921,467.835 254.3984,467.5694 Q253.8046,467.2881 253.1796,467.2881 Q251.8359,467.2881 251.1484,468.3663 Q250.4609,469.4288 250.4609,471.5225 Q250.4609,473.6163 251.1484,474.6944 Q251.8359,475.7569 253.1796,475.7569 Q253.8046,475.7569 254.3984,475.4913 Q254.9921,475.21 255.6171,474.6319 L255.6171,477.3506 Z " fill="#000000"/><text fill="#000000" font-family="sans-serif" font-size="14" lengthAdjust="spacing" textLength="58.1943" x="273.1484" y="476.5567">Provider</text><line style="stroke:#181818;stroke-width:0.5;" x1="202.83" x2="369.1611" y1="487.71" y2="487.71"/><g data-visibility-modifier="PUBLIC_FIELD"><ellipse cx="212.83" cy="501.3584" fill="none" rx="3" ry="3" style="stroke:#038048;stroke-width:1;"/></g><text fill="#000000" font-family="sans-serif" font-size="14" lengthAdjust="spacing" textLength="131.332" x="221.83" y="504.7051">policy: Policy [1..*]</text><g data-visibility-modifier="PUBLIC_FIELD"><ellipse cx="212.83" cy="517.6553" fill="none" rx="3" ry="3" style="stroke:#038048;stroke-width:1;"/></g><text fill="#000000" font-family="sans-serif" font-size="14" lengthAdjust="spacing" textLength="142.3311" x="221.83" y="521.002">providerType: string</text><g data-visibility-modifier="PUBLIC_FIELD"><ellipse cx="212.83" cy="533.9522" fill="none" rx="3" ry="3" style="stroke:#038048;stroke-width:1;"/></g><text fill="#000000" font-family="sans-serif" font-size="14" lengthAdjust="spacing" textLength="114.4268" x="221.83" y="537.2989">x5c: string [0..*]</text><line style="stroke:#181818;stroke-width:0.5;" x1="202.83" x2="369.1611" y1="544.6006" y2="544.6006"/></g><!--class LegalEntity--><g class="entity" data-qualified-name="http...data.europa.eu.eudi.wrp..LegalEntity" data-source-line="22" id="ent0008"><rect fill="#F1F1F1" height="178.375" rx="2.5" ry="2.5" style="stroke:#181818;stroke-width:0.5;" width="274.0215" x="147.99" y="654.04"/><ellipse cx="241.4304" cy="670.04" fill="#ADD1B2" rx="11" ry="11" style="stroke:#181818;stroke-width:1;"/><path d="M244.3992,675.6806 Q243.8211,675.9775 243.1804,676.1181 Q242.5398,676.2744 241.8367,676.2744 Q239.3367,676.2744 238.0086,674.6338 Q236.6961,672.9775 236.6961,669.8525 Q236.6961,666.7275 238.0086,665.0713 Q239.3367,663.415 241.8367,663.415 Q242.5398,663.415 243.1804,663.5713 Q243.8367,663.7275 244.3992,664.0244 L244.3992,666.7431 Q243.7742,666.165 243.1804,665.8994 Q242.5867,665.6181 241.9617,665.6181 Q240.6179,665.6181 239.9304,666.6963 Q239.2429,667.7588 239.2429,669.8525 Q239.2429,671.9463 239.9304,673.0244 Q240.6179,674.0869 241.9617,674.0869 Q242.5867,674.0869 243.1804,673.8213 Q243.7742,673.54 244.3992,672.9619 L244.3992,675.6806 Z " fill="#000000"/><text fill="#000000" font-family="sans-serif" font-size="14" lengthAdjust="spacing" textLength="78.6406" x="261.9304" y="674.8867">LegalEntity</text><line style="stroke:#181818;stroke-width:0.5;" x1="148.99" x2="421.0115" y1="686.04" y2="686.04"/><g data-visibility-modifier="PUBLIC_FIELD"><ellipse cx="158.99" cy="699.6884" fill="none" rx="3" ry="3" style="stroke:#038048;stroke-width:1;"/></g><text fill="#000000" font-family="sans-serif" font-size="14" lengthAdjust="spacing" textLength="175.2461" x="167.99" y="703.0351">identifier: Identifier [1..*]</text><g data-visibility-modifier="PUBLIC_FIELD"><ellipse cx="158.99" cy="715.9853" fill="none" rx="3" ry="3" style="stroke:#038048;stroke-width:1;"/></g><text fill="#000000" font-family="sans-serif" font-size="14" lengthAdjust="spacing" textLength="217.9707" x="167.99" y="719.332">legalPerson: LegalPerson [0..1]</text><g data-visibility-modifier="PUBLIC_FIELD"><ellipse cx="158.99" cy="732.2822" fill="none" rx="3" ry="3" style="stroke:#038048;stroke-width:1;"/></g><text fill="#000000" font-family="sans-serif" font-size="14" lengthAdjust="spacing" textLength="248.0215" x="167.99" y="735.6289">naturalPerson: NaturalPerson [0..1]</text><g data-visibility-modifier="PUBLIC_FIELD"><ellipse cx="158.99" cy="748.5791" fill="none" rx="3" ry="3" style="stroke:#038048;stroke-width:1;"/></g><text fill="#000000" font-family="sans-serif" font-size="14" lengthAdjust="spacing" textLength="188.5488" x="167.99" y="751.9257">postalAddress: string [0..*]</text><g data-visibility-modifier="PUBLIC_FIELD"><ellipse cx="158.99" cy="764.8759" fill="none" rx="3" ry="3" style="stroke:#038048;stroke-width:1;"/></g><text fill="#000000" font-family="sans-serif" font-size="14" lengthAdjust="spacing" textLength="102.8945" x="167.99" y="768.2226">country: string</text><g data-visibility-modifier="PUBLIC_FIELD"><ellipse cx="158.99" cy="781.1728" fill="none" rx="3" ry="3" style="stroke:#038048;stroke-width:1;"/></g><text fill="#000000" font-family="sans-serif" font-size="14" lengthAdjust="spacing" textLength="128.1465" x="167.99" y="784.5195">email: string [0..*]</text><g data-visibility-modifier="PUBLIC_FIELD"><ellipse cx="158.99" cy="797.4697" fill="none" rx="3" ry="3" style="stroke:#038048;stroke-width:1;"/></g><text fill="#000000" font-family="sans-serif" font-size="14" lengthAdjust="spacing" textLength="133.3486" x="167.99" y="800.8164">phone: string [0..*]</text><g data-visibility-modifier="PUBLIC_FIELD"><ellipse cx="158.99" cy="813.7666" fill="none" rx="3" ry="3" style="stroke:#038048;stroke-width:1;"/></g><text fill="#000000" font-family="sans-serif" font-size="14" lengthAdjust="spacing" textLength="139.8975" x="167.99" y="817.1132">infoURI: string [0..*]</text><line style="stroke:#181818;stroke-width:0.5;" x1="148.99" x2="421.0115" y1="824.415" y2="824.415"/></g><!--class Policy--><g class="entity" data-qualified-name="http...data.europa.eu.eudi.wrp..Policy" data-source-line="24" id="ent0010"><rect fill="#F1F1F1" height="80.5938" rx="2.5" ry="2.5" style="stroke:#181818;stroke-width:0.5;" width="140.6729" x="456.66" y="702.93"/><ellipse cx="502.3617" cy="718.93" fill="#ADD1B2" rx="11" ry="11" style="stroke:#181818;stroke-width:1;"/><path d="M505.3304,724.5706 Q504.7523,724.8675 504.1117,725.0081 Q503.471,725.1644 502.7679,725.1644 Q500.2679,725.1644 498.9398,723.5238 Q497.6273,721.8675 497.6273,718.7425 Q497.6273,715.6175 498.9398,713.9613 Q500.2679,712.305 502.7679,712.305 Q503.471,712.305 504.1117,712.4613 Q504.7679,712.6175 505.3304,712.9144 L505.3304,715.6331 Q504.7054,715.055 504.1117,714.7894 Q503.5179,714.5081 502.8929,714.5081 Q501.5492,714.5081 500.8617,715.5863 Q500.1742,716.6488 500.1742,718.7425 Q500.1742,720.8363 500.8617,721.9144 Q501.5492,722.9769 502.8929,722.9769 Q503.5179,722.9769 504.1117,722.7113 Q504.7054,722.43 505.3304,721.8519 L505.3304,724.5706 Z " fill="#000000"/><text fill="#000000" font-family="sans-serif" font-size="14" lengthAdjust="spacing" textLength="40.7695" x="522.8617" y="723.7767">Policy</text><line style="stroke:#181818;stroke-width:0.5;" x1="457.66" x2="596.3329" y1="734.93" y2="734.93"/><g data-visibility-modifier="PUBLIC_FIELD"><ellipse cx="467.66" cy="748.5784" fill="none" rx="3" ry="3" style="stroke:#038048;stroke-width:1;"/></g><text fill="#000000" font-family="sans-serif" font-size="14" lengthAdjust="spacing" textLength="114.6729" x="476.66" y="751.9251">policyURI: string</text><g data-visibility-modifier="PUBLIC_FIELD"><ellipse cx="467.66" cy="764.8753" fill="none" rx="3" ry="3" style="stroke:#038048;stroke-width:1;"/></g><text fill="#000000" font-family="sans-serif" font-size="14" lengthAdjust="spacing" textLength="80.6299" x="476.66" y="768.222">type: string</text><line style="stroke:#181818;stroke-width:0.5;" x1="457.66" x2="596.3329" y1="775.5238" y2="775.5238"/></g><!--class IntendedUse--><g class="entity" data-qualified-name="http...data.europa.eu.eudi.wrp..IntendedUse" data-source-line="29" id="ent0011"><rect fill="#F1F1F1" height="145.7813" rx="2.5" ry="2.5" style="stroke:#181818;stroke-width:0.5;" width="242.3643" x="404.82" y="431.26"/><ellipse cx="477.4929" cy="447.26" fill="#ADD1B2" rx="11" ry="11" style="stroke:#181818;stroke-width:1;"/><path d="M480.4616,452.9006 Q479.8835,453.1975 479.2429,453.3381 Q478.6022,453.4944 477.8991,453.4944 Q475.3991,453.4944 474.071,451.8538 Q472.7585,450.1975 472.7585,447.0725 Q472.7585,443.9475 474.071,442.2913 Q475.3991,440.635 477.8991,440.635 Q478.6022,440.635 479.2429,440.7913 Q479.8991,440.9475 480.4616,441.2444 L480.4616,443.9631 Q479.8366,443.385 479.2429,443.1194 Q478.6491,442.8381 478.0241,442.8381 Q476.6804,442.8381 475.9929,443.9163 Q475.3054,444.9788 475.3054,447.0725 Q475.3054,449.1663 475.9929,450.2444 Q476.6804,451.3069 478.0241,451.3069 Q478.6491,451.3069 479.2429,451.0413 Q479.8366,450.76 480.4616,450.1819 L480.4616,452.9006 Z " fill="#000000"/><text fill="#000000" font-family="sans-serif" font-size="14" lengthAdjust="spacing" textLength="88.5186" x="497.9929" y="452.1067">IntendedUse</text><line style="stroke:#181818;stroke-width:0.5;" x1="405.82" x2="646.1843" y1="463.26" y2="463.26"/><g data-visibility-modifier="PUBLIC_FIELD"><ellipse cx="415.82" cy="476.9084" fill="none" rx="3" ry="3" style="stroke:#038048;stroke-width:1;"/></g><text fill="#000000" font-family="sans-serif" font-size="14" lengthAdjust="spacing" textLength="216.3643" x="424.82" y="480.2551">purpose: MultiLangString [1..*]</text><g data-visibility-modifier="PUBLIC_FIELD"><ellipse cx="415.82" cy="493.2053" fill="none" rx="3" ry="3" style="stroke:#038048;stroke-width:1;"/></g><text fill="#000000" font-family="sans-serif" font-size="14" lengthAdjust="spacing" textLength="182.2666" x="424.82" y="496.552">privacyPolicy: Policy [1..*]</text><g data-visibility-modifier="PUBLIC_FIELD"><ellipse cx="415.82" cy="509.5022" fill="none" rx="3" ry="3" style="stroke:#038048;stroke-width:1;"/></g><text fill="#000000" font-family="sans-serif" font-size="14" lengthAdjust="spacing" textLength="205.1533" x="424.82" y="512.8489">intendedUseIdentifier : string</text><g data-visibility-modifier="PUBLIC_FIELD"><ellipse cx="415.82" cy="525.7991" fill="none" rx="3" ry="3" style="stroke:#038048;stroke-width:1;"/></g><text fill="#000000" font-family="sans-serif" font-size="14" lengthAdjust="spacing" textLength="118.0566" x="424.82" y="529.1457">createdAt: string</text><g data-visibility-modifier="PUBLIC_FIELD"><ellipse cx="415.82" cy="542.0959" fill="none" rx="3" ry="3" style="stroke:#038048;stroke-width:1;"/></g><text fill="#000000" font-family="sans-serif" font-size="14" lengthAdjust="spacing" textLength="121.249" x="424.82" y="545.4426">revokedAt: string</text><g data-visibility-modifier="PUBLIC_FIELD"><ellipse cx="415.82" cy="558.3928" fill="none" rx="3" ry="3" style="stroke:#038048;stroke-width:1;"/></g><text fill="#000000" font-family="sans-serif" font-size="14" lengthAdjust="spacing" textLength="199.2949" x="424.82" y="561.7395">credentials: Credential [1..*]</text><line style="stroke:#181818;stroke-width:0.5;" x1="405.82" x2="646.1843" y1="569.0413" y2="569.0413"/></g><!--class ProvidedAttestation--><g class="entity" data-qualified-name="http...data.europa.eu.eudi.wrp..ProvidedAttestation" data-source-line="38" id="ent0012"><rect fill="#F1F1F1" height="80.5938" rx="2.5" ry="2.5" style="stroke:#181818;stroke-width:0.5;" width="170.6738" x="682.66" y="463.86"/><ellipse cx="697.66" cy="479.86" fill="#ADD1B2" rx="11" ry="11" style="stroke:#181818;stroke-width:1;"/><path d="M700.6288,485.5006 Q700.0506,485.7975 699.41,485.9381 Q698.7694,486.0944 698.0663,486.0944 Q695.5663,486.0944 694.2381,484.4538 Q692.9256,482.7975 692.9256,479.6725 Q692.9256,476.5475 694.2381,474.8913 Q695.5663,473.235 698.0663,473.235 Q698.7694,473.235 699.41,473.3913 Q700.0663,473.5475 700.6288,473.8444 L700.6288,476.5631 Q700.0038,475.985 699.41,475.7194 Q698.8163,475.4381 698.1913,475.4381 Q696.8475,475.4381 696.16,476.5163 Q695.4725,477.5788 695.4725,479.6725 Q695.4725,481.7663 696.16,482.8444 Q696.8475,483.9069 698.1913,483.9069 Q698.8163,483.9069 699.41,483.6413 Q700.0038,483.36 700.6288,482.7819 L700.6288,485.5006 Z " fill="#000000"/><text fill="#000000" font-family="sans-serif" font-size="14" lengthAdjust="spacing" textLength="138.6738" x="711.66" y="484.7067">ProvidedAttestation</text><line style="stroke:#181818;stroke-width:0.5;" x1="683.66" x2="852.3338" y1="495.86" y2="495.86"/><g data-visibility-modifier="PUBLIC_FIELD"><ellipse cx="693.66" cy="509.5084" fill="none" rx="3" ry="3" style="stroke:#038048;stroke-width:1;"/></g><text fill="#000000" font-family="sans-serif" font-size="14" lengthAdjust="spacing" textLength="96.3115" x="702.66" y="512.8551">format: string</text><g data-visibility-modifier="PUBLIC_FIELD"><ellipse cx="693.66" cy="525.8053" fill="none" rx="3" ry="3" style="stroke:#038048;stroke-width:1;"/></g><text fill="#000000" font-family="sans-serif" font-size="14" lengthAdjust="spacing" textLength="85.6748" x="702.66" y="529.152">meta: string</text><line style="stroke:#181818;stroke-width:0.5;" x1="683.66" x2="852.3338" y1="536.4538" y2="536.4538"/></g><!--class Credential--><g class="entity" data-qualified-name="http...data.europa.eu.eudi.wrp..Credential" data-source-line="43" id="ent0013"><rect fill="#F1F1F1" height="96.8906" rx="2.5" ry="2.5" style="stroke:#181818;stroke-width:0.5;" width="160.1074" x="643.95" y="694.79"/><ellipse cx="684.034" cy="710.79" fill="#ADD1B2" rx="11" ry="11" style="stroke:#181818;stroke-width:1;"/><path d="M687.0027,716.4306 Q686.4246,716.7275 685.784,716.8681 Q685.1434,717.0244 684.4402,717.0244 Q681.9402,717.0244 680.6121,715.3838 Q679.2996,713.7275 679.2996,710.6025 Q679.2996,707.4775 680.6121,705.8213 Q681.9402,704.165 684.4402,704.165 Q685.1434,704.165 685.784,704.3213 Q686.4402,704.4775 687.0027,704.7744 L687.0027,707.4931 Q686.3777,706.915 685.784,706.6494 Q685.1902,706.3681 684.5652,706.3681 Q683.2215,706.3681 682.534,707.4463 Q681.8465,708.5088 681.8465,710.6025 Q681.8465,712.6963 682.534,713.7744 Q683.2215,714.8369 684.5652,714.8369 Q685.1902,714.8369 685.784,714.5713 Q686.3777,714.29 687.0027,713.7119 L687.0027,716.4306 Z " fill="#000000"/><text fill="#000000" font-family="sans-serif" font-size="14" lengthAdjust="spacing" textLength="72.3652" x="703.6082" y="715.6367">Credential</text><line style="stroke:#181818;stroke-width:0.5;" x1="644.95" x2="803.0574" y1="726.79" y2="726.79"/><g data-visibility-modifier="PUBLIC_FIELD"><ellipse cx="654.95" cy="740.4384" fill="none" rx="3" ry="3" style="stroke:#038048;stroke-width:1;"/></g><text fill="#000000" font-family="sans-serif" font-size="14" lengthAdjust="spacing" textLength="96.3115" x="663.95" y="743.7851">format: string</text><g data-visibility-modifier="PUBLIC_FIELD"><ellipse cx="654.95" cy="756.7353" fill="none" rx="3" ry="3" style="stroke:#038048;stroke-width:1;"/></g><text fill="#000000" font-family="sans-serif" font-size="14" lengthAdjust="spacing" textLength="85.6748" x="663.95" y="760.082">meta: string</text><g data-visibility-modifier="PUBLIC_FIELD"><ellipse cx="654.95" cy="773.0322" fill="none" rx="3" ry="3" style="stroke:#038048;stroke-width:1;"/></g><text fill="#000000" font-family="sans-serif" font-size="14" lengthAdjust="spacing" textLength="134.1074" x="663.95" y="776.3789">claims: Claim [1..*]</text><line style="stroke:#181818;stroke-width:0.5;" x1="644.95" x2="803.0574" y1="783.6806" y2="783.6806"/></g><!--class Claim--><g class="entity" data-qualified-name="http...data.europa.eu.eudi.wrp..Claim" data-source-line="49" id="ent0014"><rect fill="#F1F1F1" height="64.2969" rx="2.5" ry="2.5" style="stroke:#181818;stroke-width:0.5;" width="485.9697" x="747.02" y="933.86"/><ellipse cx="965.8691" cy="949.86" fill="#ADD1B2" rx="11" ry="11" style="stroke:#181818;stroke-width:1;"/><path d="M968.8379,955.5006 Q968.2597,955.7975 967.6191,955.9381 Q966.9785,956.0944 966.2754,956.0944 Q963.7754,956.0944 962.4472,954.4538 Q961.1347,952.7975 961.1347,949.6725 Q961.1347,946.5475 962.4472,944.8913 Q963.7754,943.235 966.2754,943.235 Q966.9785,943.235 967.6191,943.3913 Q968.2754,943.5475 968.8379,943.8444 L968.8379,946.5631 Q968.2129,945.985 967.6191,945.7194 Q967.0254,945.4381 966.4004,945.4381 Q965.0566,945.4381 964.3691,946.5163 Q963.6816,947.5788 963.6816,949.6725 Q963.6816,951.7663 964.3691,952.8444 Q965.0566,953.9069 966.4004,953.9069 Q967.0254,953.9069 967.6191,953.6413 Q968.2129,953.36 968.8379,952.7819 L968.8379,955.5006 Z " fill="#000000"/><text fill="#000000" font-family="sans-serif" font-size="14" lengthAdjust="spacing" textLength="39.7715" x="986.3691" y="954.7067">Claim</text><line style="stroke:#181818;stroke-width:0.5;" x1="748.02" x2="1231.9897" y1="965.86" y2="965.86"/><g data-visibility-modifier="PUBLIC_FIELD"><ellipse cx="758.02" cy="979.5084" fill="none" rx="3" ry="3" style="stroke:#038048;stroke-width:1;"/></g><text fill="#000000" font-family="sans-serif" font-size="14" lengthAdjust="spacing" textLength="459.9697" x="767.02" y="982.8551">path: non-empty array of strings, nulls and non-negative integers</text><line style="stroke:#181818;stroke-width:0.5;" x1="748.02" x2="1231.9897" y1="990.1569" y2="990.1569"/></g><!--class Identifier--><g class="entity" data-qualified-name="http...data.europa.eu.eudi.wrp..Identifier" data-source-line="64" id="ent0015"><rect fill="#F1F1F1" height="80.5938" rx="2.5" ry="2.5" style="stroke:#181818;stroke-width:0.5;" width="138.1846" x="69.91" y="925.72"/><ellipse cx="104.3123" cy="941.72" fill="#ADD1B2" rx="11" ry="11" style="stroke:#181818;stroke-width:1;"/><path d="M107.281,947.3606 Q106.7029,947.6575 106.0623,947.7981 Q105.4217,947.9544 104.7185,947.9544 Q102.2185,947.9544 100.8904,946.3138 Q99.5779,944.6575 99.5779,941.5325 Q99.5779,938.4075 100.8904,936.7513 Q102.2185,935.095 104.7185,935.095 Q105.4217,935.095 106.0623,935.2513 Q106.7185,935.4075 107.281,935.7044 L107.281,938.4231 Q106.656,937.845 106.0623,937.5794 Q105.4685,937.2981 104.8435,937.2981 Q103.4998,937.2981 102.8123,938.3763 Q102.1248,939.4388 102.1248,941.5325 Q102.1248,943.6263 102.8123,944.7044 Q103.4998,945.7669 104.8435,945.7669 Q105.4685,945.7669 106.0623,945.5013 Q106.656,945.22 107.281,944.6419 L107.281,947.3606 Z " fill="#000000"/><text fill="#000000" font-family="sans-serif" font-size="14" lengthAdjust="spacing" textLength="63.0684" x="122.6239" y="946.5667">Identifier</text><line style="stroke:#181818;stroke-width:0.5;" x1="70.91" x2="207.0946" y1="957.72" y2="957.72"/><g data-visibility-modifier="PUBLIC_FIELD"><ellipse cx="80.91" cy="971.3684" fill="none" rx="3" ry="3" style="stroke:#038048;stroke-width:1;"/></g><text fill="#000000" font-family="sans-serif" font-size="14" lengthAdjust="spacing" textLength="112.1846" x="89.91" y="974.7151">identifier: string</text><g data-visibility-modifier="PUBLIC_FIELD"><ellipse cx="80.91" cy="987.6653" fill="none" rx="3" ry="3" style="stroke:#038048;stroke-width:1;"/></g><text fill="#000000" font-family="sans-serif" font-size="14" lengthAdjust="spacing" textLength="80.6299" x="89.91" y="991.012">type: string</text><line style="stroke:#181818;stroke-width:0.5;" x1="70.91" x2="207.0946" y1="998.3138" y2="998.3138"/></g><!--class LegalPerson--><g class="entity" data-qualified-name="http...data.europa.eu.eudi.wrp..LegalPerson" data-source-line="69" id="ent0016"><rect fill="#F1F1F1" height="80.5938" rx="2.5" ry="2.5" style="stroke:#181818;stroke-width:0.5;" width="229.2051" x="243.4" y="925.72"/><ellipse cx="311.0963" cy="941.72" fill="#ADD1B2" rx="11" ry="11" style="stroke:#181818;stroke-width:1;"/><path d="M314.065,947.3606 Q313.4869,947.6575 312.8463,947.7981 Q312.2057,947.9544 311.5025,947.9544 Q309.0025,947.9544 307.6744,946.3138 Q306.3619,944.6575 306.3619,941.5325 Q306.3619,938.4075 307.6744,936.7513 Q309.0025,935.095 311.5025,935.095 Q312.2057,935.095 312.8463,935.2513 Q313.5025,935.4075 314.065,935.7044 L314.065,938.4231 Q313.44,937.845 312.8463,937.5794 Q312.2525,937.2981 311.6275,937.2981 Q310.2838,937.2981 309.5963,938.3763 Q308.9088,939.4388 308.9088,941.5325 Q308.9088,943.6263 309.5963,944.7044 Q310.2838,945.7669 311.6275,945.7669 Q312.2525,945.7669 312.8463,945.5013 Q313.44,945.22 314.065,944.6419 L314.065,947.3606 Z " fill="#000000"/><text fill="#000000" font-family="sans-serif" font-size="14" lengthAdjust="spacing" textLength="85.3125" x="331.5963" y="946.5667">LegalPerson</text><line style="stroke:#181818;stroke-width:0.5;" x1="244.4" x2="471.6051" y1="957.72" y2="957.72"/><g data-visibility-modifier="PUBLIC_FIELD"><ellipse cx="254.4" cy="971.3684" fill="none" rx="3" ry="3" style="stroke:#038048;stroke-width:1;"/></g><text fill="#000000" font-family="sans-serif" font-size="14" lengthAdjust="spacing" textLength="203.2051" x="263.4" y="974.7151">establishedByLaw: Law [0..*]</text><g data-visibility-modifier="PUBLIC_FIELD"><ellipse cx="254.4" cy="987.6653" fill="none" rx="3" ry="3" style="stroke:#038048;stroke-width:1;"/></g><text fill="#000000" font-family="sans-serif" font-size="14" lengthAdjust="spacing" textLength="164.6982" x="263.4" y="991.012">legalName: string [1..*]</text><line style="stroke:#181818;stroke-width:0.5;" x1="244.4" x2="471.6051" y1="998.3138" y2="998.3138"/></g><!--class Law--><g class="entity" data-qualified-name="http...data.europa.eu.eudi.wrp..Law" data-source-line="74" id="ent0017"><rect fill="#F1F1F1" height="80.5938" rx="2.5" ry="2.5" style="stroke:#181818;stroke-width:0.5;" width="209.7432" x="253.13" y="1099.61"/><ellipse cx="339.837" cy="1115.61" fill="#ADD1B2" rx="11" ry="11" style="stroke:#181818;stroke-width:1;"/><path d="M342.8058,1121.2506 Q342.2277,1121.5475 341.587,1121.6881 Q340.9464,1121.8444 340.2433,1121.8444 Q337.7433,1121.8444 336.4152,1120.2038 Q335.1027,1118.5475 335.1027,1115.4225 Q335.1027,1112.2975 336.4152,1110.6413 Q337.7433,1108.985 340.2433,1108.985 Q340.9464,1108.985 341.587,1109.1413 Q342.2433,1109.2975 342.8058,1109.5944 L342.8058,1112.3131 Q342.1808,1111.735 341.587,1111.4694 Q340.9933,1111.1881 340.3683,1111.1881 Q339.0245,1111.1881 338.337,1112.2663 Q337.6495,1113.3288 337.6495,1115.4225 Q337.6495,1117.5163 338.337,1118.5944 Q339.0245,1119.6569 340.3683,1119.6569 Q340.9933,1119.6569 341.587,1119.3913 Q342.1808,1119.11 342.8058,1118.5319 L342.8058,1121.2506 Z " fill="#000000"/><text fill="#000000" font-family="sans-serif" font-size="14" lengthAdjust="spacing" textLength="27.8291" x="360.337" y="1120.4567">Law</text><line style="stroke:#181818;stroke-width:0.5;" x1="254.13" x2="461.8732" y1="1131.61" y2="1131.61"/><g data-visibility-modifier="PUBLIC_FIELD"><ellipse cx="264.13" cy="1145.2584" fill="none" rx="3" ry="3" style="stroke:#038048;stroke-width:1;"/></g><text fill="#000000" font-family="sans-serif" font-size="14" lengthAdjust="spacing" textLength="183.7432" x="273.13" y="1148.6051">legislativeIdentifier: string</text><g data-visibility-modifier="PUBLIC_FIELD"><ellipse cx="264.13" cy="1161.5553" fill="none" rx="3" ry="3" style="stroke:#038048;stroke-width:1;"/></g><text fill="#000000" font-family="sans-serif" font-size="14" lengthAdjust="spacing" textLength="160.0566" x="273.13" y="1164.902">legalBasis: string [0..*]</text><line style="stroke:#181818;stroke-width:0.5;" x1="254.13" x2="461.8732" y1="1172.2038" y2="1172.2038"/></g><!--class MultiLangString--><g class="entity" data-qualified-name="http...data.europa.eu.eudi.wrp..MultiLangString" data-source-line="79" id="ent0018"><rect fill="#F1F1F1" height="80.5938" rx="2.5" ry="2.5" style="stroke:#181818;stroke-width:0.5;" width="142.1406" x="845.93" y="702.93"/><ellipse cx="860.93" cy="718.93" fill="#ADD1B2" rx="11" ry="11" style="stroke:#181818;stroke-width:1;"/><path d="M863.8988,724.5706 Q863.3206,724.8675 862.68,725.0081 Q862.0394,725.1644 861.3363,725.1644 Q858.8363,725.1644 857.5081,723.5238 Q856.1956,721.8675 856.1956,718.7425 Q856.1956,715.6175 857.5081,713.9613 Q858.8363,712.305 861.3363,712.305 Q862.0394,712.305 862.68,712.4613 Q863.3363,712.6175 863.8988,712.9144 L863.8988,715.6331 Q863.2738,715.055 862.68,714.7894 Q862.0863,714.5081 861.4613,714.5081 Q860.1175,714.5081 859.43,715.5863 Q858.7425,716.6488 858.7425,718.7425 Q858.7425,720.8363 859.43,721.9144 Q860.1175,722.9769 861.4613,722.9769 Q862.0863,722.9769 862.68,722.7113 Q863.2738,722.43 863.8988,721.8519 L863.8988,724.5706 Z " fill="#000000"/><text fill="#000000" font-family="sans-serif" font-size="14" lengthAdjust="spacing" textLength="110.1406" x="874.93" y="723.7767">MultiLangString</text><line style="stroke:#181818;stroke-width:0.5;" x1="846.93" x2="987.0706" y1="734.93" y2="734.93"/><g data-visibility-modifier="PUBLIC_FIELD"><ellipse cx="856.93" cy="748.5784" fill="none" rx="3" ry="3" style="stroke:#038048;stroke-width:1;"/></g><text fill="#000000" font-family="sans-serif" font-size="14" lengthAdjust="spacing" textLength="79.584" x="865.93" y="751.9251">lang: string</text><g data-visibility-modifier="PUBLIC_FIELD"><ellipse cx="856.93" cy="764.8753" fill="none" rx="3" ry="3" style="stroke:#038048;stroke-width:1;"/></g><text fill="#000000" font-family="sans-serif" font-size="14" lengthAdjust="spacing" textLength="102.9561" x="865.93" y="768.222">content: string</text><line style="stroke:#181818;stroke-width:0.5;" x1="846.93" x2="987.0706" y1="775.5238" y2="775.5238"/></g><!--class SupervisoryAuthority--><g class="entity" data-qualified-name="http...data.europa.eu.eudi.wrp..SupervisoryAuthority" data-source-line="84" id="ent0019"><rect fill="#F1F1F1" height="129.4844" rx="2.5" ry="2.5" style="stroke:#181818;stroke-width:0.5;" width="179.8887" x="1053.06" y="439.41"/><ellipse cx="1068.06" cy="455.41" fill="#ADD1B2" rx="11" ry="11" style="stroke:#181818;stroke-width:1;"/><path d="M1071.0288,461.0506 Q1070.4506,461.3475 1069.81,461.4881 Q1069.1694,461.6444 1068.4663,461.6444 Q1065.9663,461.6444 1064.6381,460.0038 Q1063.3256,458.3475 1063.3256,455.2225 Q1063.3256,452.0975 1064.6381,450.4413 Q1065.9663,448.785 1068.4663,448.785 Q1069.1694,448.785 1069.81,448.9413 Q1070.4663,449.0975 1071.0288,449.3944 L1071.0288,452.1131 Q1070.4038,451.535 1069.81,451.2694 Q1069.2163,450.9881 1068.5913,450.9881 Q1067.2475,450.9881 1066.56,452.0663 Q1065.8725,453.1288 1065.8725,455.2225 Q1065.8725,457.3163 1066.56,458.3944 Q1067.2475,459.4569 1068.5913,459.4569 Q1069.2163,459.4569 1069.81,459.1913 Q1070.4038,458.91 1071.0288,458.3319 L1071.0288,461.0506 Z " fill="#000000"/><text fill="#000000" font-family="sans-serif" font-size="14" lengthAdjust="spacing" textLength="147.8887" x="1082.06" y="460.2567">SupervisoryAuthority</text><line style="stroke:#181818;stroke-width:0.5;" x1="1054.06" x2="1231.9487" y1="471.41" y2="471.41"/><g data-visibility-modifier="PUBLIC_FIELD"><ellipse cx="1064.06" cy="485.0584" fill="none" rx="3" ry="3" style="stroke:#038048;stroke-width:1;"/></g><text fill="#000000" font-family="sans-serif" font-size="14" lengthAdjust="spacing" textLength="102.8945" x="1073.06" y="488.4051">country: string</text><g data-visibility-modifier="PUBLIC_FIELD"><ellipse cx="1064.06" cy="501.3553" fill="none" rx="3" ry="3" style="stroke:#038048;stroke-width:1;"/></g><text fill="#000000" font-family="sans-serif" font-size="14" lengthAdjust="spacing" textLength="89.0586" x="1073.06" y="504.702">name: string</text><g data-visibility-modifier="PUBLIC_FIELD"><ellipse cx="1064.06" cy="517.6522" fill="none" rx="3" ry="3" style="stroke:#038048;stroke-width:1;"/></g><text fill="#000000" font-family="sans-serif" font-size="14" lengthAdjust="spacing" textLength="128.1465" x="1073.06" y="520.9989">email: string [0..*]</text><g data-visibility-modifier="PUBLIC_FIELD"><ellipse cx="1064.06" cy="533.9491" fill="none" rx="3" ry="3" style="stroke:#038048;stroke-width:1;"/></g><text fill="#000000" font-family="sans-serif" font-size="14" lengthAdjust="spacing" textLength="133.3486" x="1073.06" y="537.2957">phone: string [0..*]</text><g data-visibility-modifier="PUBLIC_FIELD"><ellipse cx="1064.06" cy="550.2459" fill="none" rx="3" ry="3" style="stroke:#038048;stroke-width:1;"/></g><text fill="#000000" font-family="sans-serif" font-size="14" lengthAdjust="spacing" textLength="146.5283" x="1073.06" y="553.5926">formURI: string [0..*]</text><line style="stroke:#181818;stroke-width:0.5;" x1="1054.06" x2="1231.9487" y1="560.8944" y2="560.8944"/></g><!--class NaturalPerson--><g class="entity" data-qualified-name="http...data.europa.eu.eudi.wrp..NaturalPerson" data-source-line="92" id="ent0020"><rect fill="#F1F1F1" height="113.1875" rx="2.5" ry="2.5" style="stroke:#181818;stroke-width:0.5;" width="204.6709" x="507.66" y="909.42"/><ellipse cx="556.1541" cy="925.42" fill="#ADD1B2" rx="11" ry="11" style="stroke:#181818;stroke-width:1;"/><path d="M559.1229,931.0606 Q558.5448,931.3575 557.9041,931.4981 Q557.2635,931.6544 556.5604,931.6544 Q554.0604,931.6544 552.7323,930.0138 Q551.4198,928.3575 551.4198,925.2325 Q551.4198,922.1075 552.7323,920.4513 Q554.0604,918.795 556.5604,918.795 Q557.2635,918.795 557.9041,918.9513 Q558.5604,919.1075 559.1229,919.4044 L559.1229,922.1231 Q558.4979,921.545 557.9041,921.2794 Q557.3104,920.9981 556.6854,920.9981 Q555.3416,920.9981 554.6541,922.0763 Q553.9666,923.1388 553.9666,925.2325 Q553.9666,927.3263 554.6541,928.4044 Q555.3416,929.4669 556.6854,929.4669 Q557.3104,929.4669 557.9041,929.2013 Q558.4979,928.92 559.1229,928.3419 L559.1229,931.0606 Z " fill="#000000"/><text fill="#000000" font-family="sans-serif" font-size="14" lengthAdjust="spacing" textLength="99.1826" x="576.6541" y="930.2667">NaturalPerson</text><line style="stroke:#181818;stroke-width:0.5;" x1="508.66" x2="711.3309" y1="941.42" y2="941.42"/><g data-visibility-modifier="PUBLIC_FIELD"><ellipse cx="518.66" cy="955.0684" fill="none" rx="3" ry="3" style="stroke:#038048;stroke-width:1;"/></g><text fill="#000000" font-family="sans-serif" font-size="14" lengthAdjust="spacing" textLength="133.8682" x="527.66" y="958.4151">familyName: string</text><g data-visibility-modifier="PUBLIC_FIELD"><ellipse cx="518.66" cy="971.3653" fill="none" rx="3" ry="3" style="stroke:#038048;stroke-width:1;"/></g><text fill="#000000" font-family="sans-serif" font-size="14" lengthAdjust="spacing" textLength="129.2061" x="527.66" y="974.712">givenName: string</text><g data-visibility-modifier="PUBLIC_FIELD"><ellipse cx="518.66" cy="987.6622" fill="none" rx="3" ry="3" style="stroke:#038048;stroke-width:1;"/></g><text fill="#000000" font-family="sans-serif" font-size="14" lengthAdjust="spacing" textLength="172.5732" x="527.66" y="991.0089">dateOfBirth: string [0..1]</text><g data-visibility-modifier="PUBLIC_FIELD"><ellipse cx="518.66" cy="1003.9591" fill="none" rx="3" ry="3" style="stroke:#038048;stroke-width:1;"/></g><text fill="#000000" font-family="sans-serif" font-size="14" lengthAdjust="spacing" textLength="178.6709" x="527.66" y="1007.3057">placeOfBirth: string [0..1]</text><line style="stroke:#181818;stroke-width:0.5;" x1="508.66" x2="711.3309" y1="1014.6075" y2="1014.6075"/></g><!--link WalletRelyingParty to Provider--><g class="link" data-entity-1="ent0003" data-entity-2="ent0006" data-link-type="extension" data-source-line="15" id="lnk7"><path codeLine="15" d="M588.5,323.79 C523.8,355.27 451,392.88 387,431.26 C374.73,438.62 376.798,436.7477 364.708,445.1377" fill="none" id="WalletRelyingParty-to-Provider" style="stroke:#181818;stroke-width:1;"/><polygon fill="none" points="349.92,455.4,368.1288,450.067,361.2872,440.2084,349.92,455.4" style="stroke:#181818;stroke-width:1;"/></g><!--link Provider to LegalEntity--><g class="link" data-entity-1="ent0006" data-entity-2="ent0008" data-link-type="extension" data-source-line="22" id="lnk9"><path codeLine="22" d="M285.8,552.84 C285.68,581.78 285.5989,601.6102 285.4489,635.8502" fill="none" id="Provider-to-LegalEntity" style="stroke:#181818;stroke-width:1;"/><polygon fill="none" points="285.37,653.85,291.4488,635.8765,279.4489,635.8239,285.37,653.85" style="stroke:#181818;stroke-width:1;"/></g><!--link WalletRelyingParty to SupervisoryAuthority--><g class="link" data-entity-1="ent0003" data-entity-2="ent0019" data-link-type="association" data-source-line="99" id="lnk21"><path codeLine="99" d="M930.03,354.63 C972.02,383.91 1015.75,414.41 1052.58,440.1" fill="none" id="WalletRelyingParty-SupervisoryAuthority" style="stroke:#181818;stroke-width:1;"/><text fill="#000000" font-family="sans-serif" font-size="13" lengthAdjust="spacing" textLength="91.0127" x="990" y="397.3269">supervised by</text></g><!--link WalletRelyingParty to ProvidedAttestation--><g class="link" data-entity-1="ent0003" data-entity-2="ent0012" data-link-type="association" data-source-line="100" id="lnk22"><path codeLine="100" d="M768,354.44 C768,393.28 768,434.28 768,463.37" fill="none" id="WalletRelyingParty-ProvidedAttestation" style="stroke:#181818;stroke-width:1;"/><text fill="#000000" font-family="sans-serif" font-size="13" lengthAdjust="spacing" textLength="81.561" x="769" y="397.3269">may provide</text></g><!--link WalletRelyingParty to WalletRelyingParty--><g class="link" data-entity-1="ent0003" data-entity-2="ent0003" data-link-type="association" data-source-line="101" id="lnk23"><path codeLine="101" d="M947.88,216.28 C968.81,220.78 982.42,228.89 982.42,240.63 C982.42,252.37 968.81,260.48 947.88,264.97" fill="none" id="WalletRelyingParty-WalletRelyingParty" style="stroke:#181818;stroke-width:1;"/><text fill="#000000" font-family="sans-serif" font-size="13" lengthAdjust="spacing" textLength="143.4189" x="988.42" y="245.1969">may use intermediary</text></g><!--link WalletRelyingParty to IntendedUse--><g class="link" data-entity-1="ent0003" data-entity-2="ent0011" data-link-type="association" data-source-line="102" id="lnk24"><path codeLine="102" d="M663.61,354.44 C639.56,380.43 614.62,407.38 592.69,431.09" fill="none" id="WalletRelyingParty-IntendedUse" style="stroke:#181818;stroke-width:1;"/><text fill="#000000" font-family="sans-serif" font-size="13" lengthAdjust="spacing" textLength="55.0278" x="633" y="397.3269">contains</text></g><!--link WalletRelyingParty to MultiLangString--><g class="link" data-entity-1="ent0003" data-entity-2="ent0018" data-link-type="association" data-source-line="103" id="lnk25"><path codeLine="103" d="M844.58,354.69 C849.84,364.49 854.74,374.43 859,384.26 C906,492.72 915.26,634.63 916.85,702.59" fill="none" id="WalletRelyingParty-MultiLangString" style="stroke:#181818;stroke-width:1;"/><text fill="#000000" font-family="sans-serif" font-size="13" lengthAdjust="spacing" textLength="93.8501" x="908" y="508.7169">srvDescription</text></g><!--link IntendedUse to MultiLangString--><g class="link" data-entity-1="ent0011" data-entity-2="ent0018" data-link-type="association" data-source-line="104" id="lnk26"><path codeLine="104" d="M647.59,568.23 C653.47,571.22 659.3,574.17 665,577.04 C734.41,612.01 757.95,610.03 822,654.04 C842.4,668.06 862.81,686.32 879.45,702.58" fill="none" id="IntendedUse-MultiLangString" style="stroke:#181818;stroke-width:1;"/><text fill="#000000" font-family="sans-serif" font-size="13" lengthAdjust="spacing" textLength="52.8125" x="771" y="620.1069">purpose</text></g><!--link IntendedUse to Policy--><g class="link" data-entity-1="ent0011" data-entity-2="ent0010" data-link-type="association" data-source-line="105" id="lnk27"><path codeLine="105" d="M526.3,577.25 C526.48,618.39 526.69,668.4 526.83,702.5" fill="none" id="IntendedUse-Policy" style="stroke:#181818;stroke-width:1;"/><text fill="#000000" font-family="sans-serif" font-size="13" lengthAdjust="spacing" textLength="22.9785" x="527" y="620.1069">has</text></g><!--link IntendedUse to Credential--><g class="link" data-entity-1="ent0011" data-entity-2="ent0013" data-link-type="association" data-source-line="106" id="lnk28"><path codeLine="106" d="M586.21,577.25 C617.96,615.26 656.02,660.83 684.09,694.44" fill="none" id="IntendedUse-Credential" style="stroke:#181818;stroke-width:1;"/><text fill="#000000" font-family="sans-serif" font-size="13" lengthAdjust="spacing" textLength="55.0278" x="626" y="620.1069">contains</text></g><!--link Credential to Claim--><g class="link" data-entity-1="ent0013" data-entity-2="ent0014" data-link-type="association" data-source-line="107" id="lnk29"><path codeLine="107" d="M779.98,792.01 C795.49,805.16 812.36,819.39 828,832.42 C869.89,867.31 918.3,906.84 951.22,933.59" fill="none" id="Credential-Claim" style="stroke:#181818;stroke-width:1;"/><text fill="#000000" font-family="sans-serif" font-size="13" lengthAdjust="spacing" textLength="55.0278" x="882" y="875.4869">contains</text></g><!--link LegalEntity to Identifier--><g class="link" data-entity-1="ent0008" data-entity-2="ent0015" data-link-type="association" data-source-line="108" id="lnk30"><path codeLine="108" d="M226.46,832.76 C205.2,864.91 182.23,899.64 165.17,925.44" fill="none" id="LegalEntity-Identifier" style="stroke:#181818;stroke-width:1;"/><text fill="#000000" font-family="sans-serif" font-size="13" lengthAdjust="spacing" textLength="81.3262" x="205" y="875.4869">identified by</text></g><!--link LegalEntity to LegalPerson--><g class="link" data-entity-1="ent0008" data-entity-2="ent0016" data-link-type="association" data-source-line="109" id="lnk31"><path codeLine="109" d="M314.27,832.76 C324.9,864.91 336.38,899.64 344.91,925.44" fill="none" id="LegalEntity-LegalPerson" style="stroke:#181818;stroke-width:1;"/><text fill="#000000" font-family="sans-serif" font-size="13" lengthAdjust="spacing" textLength="48.7056" x="329" y="875.4869">may be</text></g><!--link LegalEntity to NaturalPerson--><g class="link" data-entity-1="ent0008" data-entity-2="ent0020" data-link-type="association" data-source-line="110" id="lnk32"><path codeLine="110" d="M415.32,832.76 C453.29,858.55 493.7,886 527.8,909.17" fill="none" id="LegalEntity-NaturalPerson" style="stroke:#181818;stroke-width:1;"/><text fill="#000000" font-family="sans-serif" font-size="13" lengthAdjust="spacing" textLength="48.7056" x="477" y="875.4869">may be</text></g><!--link LegalPerson to Law--><g class="link" data-entity-1="ent0016" data-entity-2="ent0017" data-link-type="association" data-source-line="111" id="lnk33"><path codeLine="111" d="M358,1006.45 C358,1034.3 358,1071.48 358,1099.35" fill="none" id="LegalPerson-Law" style="stroke:#181818;stroke-width:1;"/><text fill="#000000" font-family="sans-serif" font-size="13" lengthAdjust="spacing" textLength="260.8442" x="359" y="1065.6769">may be authentic source established by</text></g><!--link Provider to Policy--><g class="link" data-entity-1="ent0006" data-entity-2="ent0010" data-link-type="association" data-source-line="112" id="lnk34"><path codeLine="112" d="M335.88,552.8 C366.17,581.88 405.51,619.9 440,654.04 C455.9,669.78 473.23,687.28 488.22,702.52" fill="none" id="Provider-Policy" style="stroke:#181818;stroke-width:1;"/><text fill="#000000" font-family="sans-serif" font-size="13" lengthAdjust="spacing" textLength="22.9785" x="407" y="620.1069">has</text></g><?plantuml-src fLOzRzim4DtpAuYCQMCdGnSD1UAsWm7NDP867OeEP-bi4w58WgIS2gd_UqbQfaY9JbjqC0WTx_FTuvqbb4-mHNAvCqOMqsa51YROA27TCSMcejDd9QUNvEM2a9A1rkGRC8Rc7bbB-NO5ohJ-af0tn2YeS0ar5aGRPQ_9zvl9vFP7TwqRAOKoZ_Vp_lvsChaAzsh_4NMfg3HKy89yRfYX2-3RXumovGPvXTMZjj7c_ST0IwyUPWLP2y4GU2T4RgXXMDjJvpEHIknfXVhE6DG6N3fMStMKLf7K5tWL5OXgJxLGxLrZTa9HqnRa8IFj31HkgOtVHf1qDur6xQfIDLOKb7MJmJq9JWVwVSq7-yjONr__Ud-gILs4_fuaeQjIC5fQXoj_Pe5INrk9Wmf-lYiJ6dWRbqe8u1DOu1RO9zUHDihX62hDO0oIIQCUUWSn8OANHadXsF8ghwIYUoZRrIj5HzIRLuvC6sgh6UHMAWJZk3AGAzoBfupSwdjVm2pJFeIFFl9XrAA4YASgDqBLC7HUeu4yK56aV_7WCsP0QvUiExDv7cy2_c1s1U62NsCjBVz0AMY9s7HUzLl26yOq0LvvBMwPOUWUFTvRL3fr7X4dXA2X7NOczAr9kiUStSgwSoDcqN-aiug3QLIljum_KqtBAGFihgeKQZrcl4TADDouDvdWXpLGbZUGEy4nVqNvHYGJz6QCUrHw3fc_V4CnDYStZcvhHlKEgrcxW6UB83od2NfyqoMGeOOpU-ajg6Q-r_DpQNglCz1KvuTAS3nyt2685Gq9BDn3DiFgEqUviHsyvJlAewh_gydk2VwfoIabm-E5ch9sEKvaQz7b6RbT-VXbCwFAFSxSrfOColCQFg7iSia3M8GbYHLPjsUDSoEk8BKT6DtAEMkPaHuDxKhre-Iq8izwY9T7uLa2bBlfSqP_IBbYy4_6MiOkinRTSXghTWke83lGP7mTpUyarKZkrBfHdAZ40zIf9Biip8kkIqFbU3WSuLrZHYqbwL2n4rj5DmvEjmGiMrpqacZHg1BZgNFC9leBaG1qSVWD?></g></svg>